<svg width="204" height="281" viewBox="0 0 204 281" fill="none" xmlns="http://www.w3.org/2000/svg">
<g filter="url(#filter0_d_3191_3574)">
<path d="M120.18 78.2083H84.1217C83.2126 78.2083 82.4756 78.9468 82.4756 79.8579V81.296C82.4756 82.2071 83.2126 82.9456 84.1217 82.9456H120.18C121.09 82.9456 121.827 82.2071 121.827 81.296V79.8579C121.827 78.9468 121.09 78.2083 120.18 78.2083Z" fill="url(#paint0_linear_3191_3574)"/>
<path d="M113.67 71.6096H90.6374C89.7282 71.6096 88.9912 72.3482 88.9912 73.2593V74.6974C88.9912 75.6084 89.7282 76.347 90.6374 76.347H113.67C114.58 76.347 115.317 75.6084 115.317 74.6974V73.2593C115.317 72.3482 114.58 71.6096 113.67 71.6096Z" fill="url(#paint1_linear_3191_3574)"/>
<path d="M110.3 65.4238H94.0021C93.2513 65.4238 92.6426 66.0338 92.6426 66.7862V67.974C92.6426 68.7264 93.2513 69.3364 94.0021 69.3364H110.3C111.051 69.3364 111.66 68.7264 111.66 67.974V66.7862C111.66 66.0338 111.051 65.4238 110.3 65.4238Z" fill="url(#paint2_linear_3191_3574)"/>
<path d="M103.216 58H101.091C100.023 58 99.1582 58.8671 99.1582 59.9368V61.6254C99.1582 62.695 100.023 63.5621 101.091 63.5621H103.216C104.283 63.5621 105.149 62.695 105.149 61.6254V59.9368C105.149 58.8671 104.283 58 103.216 58Z" fill="url(#paint3_linear_3191_3574)"/>
<path d="M104.035 89.8702C104.035 87.9281 103.192 86.3538 102.152 86.3538C101.112 86.3538 100.269 87.9281 100.269 89.8702V92.9361C100.269 94.8782 101.112 96.4526 102.152 96.4526C103.192 96.4526 104.035 94.8782 104.035 92.9361V89.8702Z" fill="url(#paint4_linear_3191_3574)"/>
<path d="M60 92.9693C65.1502 89.8738 70.6225 86.2923 77.5401 86.1838C81.7552 86.0006 85.9703 86.0104 90.1854 89.5021C94.1857 93.3393 95.0594 99.5549 96.1912 105.574C96.1912 105.574 97.4153 114.967 99.1413 119.102C101.709 125.254 109.798 135.023 109.798 135.023C114.528 142.151 115.997 146.459 115.74 155.408C115.393 164.657 108.236 166.794 102.541 171.08C96.9454 174.837 93.4772 178.271 92.7486 182.017C91.4577 189.132 101.585 197.575 100.326 198.995C91.8033 196.465 85.4679 190.677 87.8061 179.42C90.6157 166.488 112.136 165.629 111.717 154.829C111.447 149.878 109.003 143.879 105.865 139.21C102.17 133.959 99.6887 129.912 96.1163 124.102C95.5727 123.218 91.3837 126.699 88.2913 126.201C89.0243 123.485 93.1836 120.336 92.9893 118.828C91.1586 110.713 90.0031 100.845 87.305 97.784C81.5619 91.5968 78.3028 93.0846 71.059 94.9705C73.2114 101.506 78.4468 109.176 77.0912 114.793L60 92.9693Z" fill="url(#paint5_linear_3191_3574)"/>
<path d="M142.745 99.2954C148.62 95.9117 132.344 86.2616 125.427 86.1505C121.212 85.9629 117.108 86.695 112.893 90.2704C106.734 97.441 102.8 109.039 104.828 119.433C107.062 130.933 120.612 140.867 120.519 151.993C121.047 168.507 93.3849 172.014 95.5615 185.237C96.9583 194.983 103.965 193.69 106.048 189.718C107.296 187.34 105.957 180.562 99.8628 183.236C100.678 179.34 105.918 176.416 112.367 172.644C117.512 169.133 125.855 160.579 126.144 153.441C127.258 141.432 116.21 131.617 113.06 124.263C112.594 123.155 115.359 123.805 117.062 122.625C115.352 119.443 109.966 117.465 109.841 116.694C109.041 108.619 111.663 100.48 114.55 97.4506C116.995 94.9811 121.616 92.2336 126.113 92.2317C129.471 93.1927 131.034 94.0177 134.68 97.596C124.769 109.18 120.649 113.994 122.325 120.338C124.001 126.681 128.023 107.773 142.744 99.2944L142.745 99.2954Z" fill="url(#paint6_linear_3191_3574)"/>
<path d="M113.67 208.628H90.6374C89.7282 208.628 88.9912 207.889 88.9912 206.978V205.54C88.9912 204.629 89.7282 203.891 90.6374 203.891H113.67C114.58 203.891 115.317 204.629 115.317 205.54V206.978C115.317 207.889 114.58 208.628 113.67 208.628Z" fill="url(#paint7_linear_3191_3574)"/>
<path d="M110.3 214.195H94.0021C93.2513 214.195 92.6426 213.585 92.6426 212.832V211.644C92.6426 210.892 93.2513 210.282 94.0021 210.282H110.3C111.051 210.282 111.66 210.892 111.66 211.644V212.832C111.66 213.585 111.051 214.195 110.3 214.195Z" fill="url(#paint8_linear_3191_3574)"/>
<path d="M103.216 221H101.091C100.023 221 99.1582 220.132 99.1582 219.063V217.374C99.1582 216.304 100.023 215.437 101.091 215.437H103.216C104.283 215.437 105.149 216.304 105.149 217.374V219.063C105.149 220.132 104.283 221 103.216 221Z" fill="url(#paint9_linear_3191_3574)"/>
</g>
<defs>
<filter id="filter0_d_3191_3574" x="0" y="-2" width="204" height="283" filterUnits="userSpaceOnUse" color-interpolation-filters="sRGB">
<feFlood flood-opacity="0" result="BackgroundImageFix"/>
<feColorMatrix in="SourceAlpha" type="matrix" values="0 0 0 0 0 0 0 0 0 0 0 0 0 0 0 0 0 0 127 0" result="hardAlpha"/>
<feOffset/>
<feGaussianBlur stdDeviation="30"/>
<feComposite in2="hardAlpha" operator="out"/>
<feColorMatrix type="matrix" values="0 0 0 0 0 0 0 0 0 0 0 0 0 0 0 0 0 0 0.25 0"/>
<feBlend mode="normal" in2="BackgroundImageFix" result="effect1_dropShadow_3191_3574"/>
<feBlend mode="normal" in="SourceGraphic" in2="effect1_dropShadow_3191_3574" result="shape"/>
</filter>
<linearGradient id="paint0_linear_3191_3574" x1="102.151" y1="78.2083" x2="102.151" y2="82.9456" gradientUnits="userSpaceOnUse">
<stop stop-color="#D4AF37"/>
</linearGradient>
<linearGradient id="paint1_linear_3191_3574" x1="102.154" y1="71.6096" x2="102.154" y2="76.347" gradientUnits="userSpaceOnUse">
<stop stop-color="#D4AF37"/>
</linearGradient>
<linearGradient id="paint2_linear_3191_3574" x1="102.151" y1="65.4238" x2="102.151" y2="69.3364" gradientUnits="userSpaceOnUse">
<stop stop-color="#D4AF37"/>
</linearGradient>
<linearGradient id="paint3_linear_3191_3574" x1="102.153" y1="58" x2="102.153" y2="63.5621" gradientUnits="userSpaceOnUse">
<stop stop-color="#D4AF37"/>
</linearGradient>
<linearGradient id="paint4_linear_3191_3574" x1="102.152" y1="86.3538" x2="102.152" y2="96.4526" gradientUnits="userSpaceOnUse">
<stop stop-color="#D4AF37"/>
</linearGradient>
<linearGradient id="paint5_linear_3191_3574" x1="87.8842" y1="86.1228" x2="87.8842" y2="198.995" gradientUnits="userSpaceOnUse">
<stop stop-color="#D4AF37"/>
</linearGradient>
<linearGradient id="paint6_linear_3191_3574" x1="119.72" y1="86.1235" x2="119.72" y2="192.693" gradientUnits="userSpaceOnUse">
<stop stop-color="#D4AF37"/>
</linearGradient>
<linearGradient id="paint7_linear_3191_3574" x1="102.154" y1="208.628" x2="102.154" y2="203.891" gradientUnits="userSpaceOnUse">
<stop stop-color="#D4AF37"/>
</linearGradient>
<linearGradient id="paint8_linear_3191_3574" x1="102.151" y1="214.195" x2="102.151" y2="210.282" gradientUnits="userSpaceOnUse">
<stop stop-color="#D4AF37"/>
</linearGradient>
<linearGradient id="paint9_linear_3191_3574" x1="102.153" y1="221" x2="102.153" y2="215.437" gradientUnits="userSpaceOnUse">
<stop stop-color="#D4AF37"/>
</linearGradient>
</defs>
</svg>
