<svg width="86" height="86" viewBox="0 0 86 86" fill="none" xmlns="http://www.w3.org/2000/svg">
<path d="M0 16.3033C0 7.29924 7.29924 0 16.3033 0H69.6967C78.7008 0 86 7.29924 86 16.3033V69.6967C86 78.7008 78.7008 86 69.6967 86H16.3033C7.29924 86 0 78.7008 0 69.6967V16.3033Z" fill="black"/>
<path d="M65.4936 55.6729C68.2588 52.7589 70.2457 49.7178 71.4544 46.5494C72.663 43.381 73.0821 40.3624 72.7118 37.4937C72.3414 34.625 71.0967 32.1851 68.9774 30.174C67.0096 28.3066 64.8369 27.0719 62.4594 26.4699C60.044 25.832 57.2573 25.8127 54.0993 26.4121C50.9036 26.9755 47.2608 28.0857 43.1711 29.7427C40.1761 30.9282 37.7256 31.7674 35.8195 32.2601C33.9135 32.7528 32.3864 32.922 31.2384 32.7675C30.0525 32.5772 29.1001 32.1408 28.3811 31.4585C27.3971 30.5248 26.9256 29.4301 26.9666 28.1743C26.9716 26.9564 27.5846 25.7041 28.8056 24.4174C30.0984 23.055 31.4445 22.3186 32.8439 22.2082C34.2434 22.0977 35.4729 22.5453 36.5325 23.5508C37.1001 24.0895 37.56 24.7417 37.9122 25.5074C38.2265 26.2373 38.438 27.265 38.5465 28.5907C38.6172 29.8804 38.6446 31.6326 38.6288 33.8472L38.1651 73.2162L48.3636 73.7241L48.8307 30.2588C48.8766 27.7851 48.7469 25.6481 48.4414 23.8479C48.136 22.0476 47.6519 20.4735 46.9893 19.1254C46.2907 17.8152 45.3927 16.6394 44.2952 15.5979C42.3652 13.7664 40.1775 12.6613 37.732 12.2825C35.2865 11.9037 32.7865 12.2644 30.2321 13.3645C27.6399 14.4288 25.1587 16.2098 22.7885 18.7074C20.5979 21.0158 19.0909 23.3617 18.2677 25.7451C17.3707 28.1303 17.1544 30.4424 17.619 32.6813C18.0476 34.9581 19.208 36.9943 21.1002 38.7899C22.7653 40.37 24.693 41.4081 26.8832 41.9043C29.0357 42.3646 31.5613 42.28 34.4601 41.6506C37.3231 41.059 40.7256 39.9366 44.6679 38.2834C47.3698 37.1794 49.6757 36.4548 51.5856 36.1095C53.4217 35.7662 54.9895 35.7436 56.2889 36.0417C57.5883 36.3398 58.7489 36.9737 59.7707 37.9433C60.7167 38.8411 61.2989 39.9329 61.5171 41.2188C61.6993 42.5426 61.4959 43.9317 60.9066 45.3864C60.3173 46.841 59.3404 48.2874 57.9757 49.7254C55.7851 52.0338 53.2442 53.6503 50.3531 54.5748C47.4242 55.4633 44.2716 55.5643 40.8955 54.8778C37.4456 54.1932 33.9186 52.6802 30.3147 50.339L25.795 59.5355C30.4092 62.4038 35.105 64.1629 39.8825 64.8127C44.66 65.4626 49.243 65.0289 53.6316 63.5117C58.0202 61.9944 61.9742 59.3815 65.4936 55.6729Z" fill="#E7E9EA"/>
<path d="M25.177 51.6707C25.177 53.9217 23.3522 55.7465 21.1012 55.7465C18.8502 55.7465 17.0253 53.9217 17.0253 51.6707C17.0253 49.4197 18.8502 47.5949 21.1012 47.5949C23.3522 47.5949 25.177 49.4197 25.177 51.6707Z" fill="#F06CB7"/>
</svg>
